<svg xmlns="http://www.w3.org/2000/svg" width="30" height="30" fill="#fff"><path class="svg-c1" d="M17.931 6h4.432a1.96 1.96 0 0 1 1.957 1.957v4.432a1.96 1.96 0 0 1-1.957 1.957h-4.432a1.96 1.96 0 0 1-1.957-1.957V7.957A1.96 1.96 0 0 1 17.931 6zM7.957 6h4.432a1.96 1.96 0 0 1 1.957 1.957v4.432a1.96 1.96 0 0 1-1.957 1.957H7.957A1.96 1.96 0 0 1 6 12.389V7.957A1.96 1.96 0 0 1 7.957 6zm9.974 9.985h4.432a1.96 1.96 0 0 1 1.957 1.957v4.432a1.96 1.96 0 0 1-1.957 1.957h-4.432a1.96 1.96 0 0 1-1.957-1.957v-4.432a1.96 1.96 0 0 1 1.957-1.957zm-9.974 0h4.432a1.96 1.96 0 0 1 1.957 1.957v4.432a1.96 1.96 0 0 1-1.957 1.957H7.957A1.96 1.96 0 0 1 6 22.374v-4.432a1.96 1.96 0 0 1 1.957-1.957z"></path></svg>