<svg xmlns="http://www.w3.org/2000/svg" width="30" height="30" fill="none"><g><path class="svg-c1" d="M24.792 12.042c-.201 0-.402.024-.604.047-1.089-3.414-3.918-6.034-7.457-6.828.272.842.166 1.766-.296 2.454-.45.652-1.207 1.031-1.965 1.031a1.98 1.98 0 0 1-1.065-.296c-.805-.474-1.172-1.517-.84-2.347.13-.308.473-.462.769-.332a.58.58 0 0 1 .331.771c-.118.296.047.711.355.901.426.261 1.124.071 1.444-.403s.32-1.209-.024-1.79l-.142-.213c-.272-.024-.556-.036-.84-.036-4.545 0-8.404 2.964-9.742 7.077a3.55 3.55 0 0 0-.509-.036C2.432 12.042 1 13.476 1 15.254s1.432 3.213 3.208 3.213c.166 0 .331-.012.497-.035 1.338 4.113 5.196 7.089 9.754 7.089s8.416-2.987 9.742-7.101c.189.024.391.047.592.047 1.775 0 3.208-1.434 3.208-3.213s-1.432-3.213-3.208-3.213zm-13.731.676c.615 0 1.124.51 1.124 1.138 0 .616-.509 1.126-1.124 1.126-.627 0-1.136-.51-1.136-1.126a1.14 1.14 0 0 1 1.136-1.138zm7.765 5.251c-.568 1.897-2.344 3.224-4.32 3.224a4.5 4.5 0 0 1-4.249-3.035c-.107-.308.059-.64.367-.747s.639.059.758.356c.462 1.34 1.716 2.241 3.125 2.241a3.34 3.34 0 0 0 3.184-2.371c.095-.32.414-.486.734-.403a.59.59 0 0 1 .402.735zm-.663-2.987c-.627 0-1.124-.51-1.124-1.126 0-.628.497-1.138 1.124-1.138s1.125.51 1.125 1.138c0 .616-.497 1.126-1.125 1.126z" fill="#fff"></path></g><defs><clipPath id="A"><path fill="#fff" transform="translate(1 5)" d="M0 0h27v20.52H0z"></path></clipPath></defs></svg>