<svg xmlns="http://www.w3.org/2000/svg" width="30" height="30" fill="none"><path class="svg-c1" d="M14.73 16.013c1.226 0 2.223.997 2.223 2.223v4.922h-4.446v-4.922c0-1.226.997-2.223 2.223-2.223zm11.575-1.156l-8.641-8.641A4.12 4.12 0 0 0 14.73 5a4.12 4.12 0 0 0-2.934 1.215l-8.642 8.641c-.1.1-.155.232-.155.373s.055.274.155.373a.53.53 0 0 0 .747 0l1.979-1.979v8.153a2.44 2.44 0 0 0 2.436 2.436h12.826a2.44 2.44 0 0 0 2.436-2.436v-8.153l1.979 1.979a.54.54 0 0 0 .747 0c.1-.1.155-.232.155-.373s-.055-.274-.155-.373z" fill="#fff"></path></svg>