<svg xmlns="http://www.w3.org/2000/svg" height="40" width="40" viewBox="0 0 40 40" class="t-socialIcon-0-1-57">
    <path d="M20 10.61l4.628.067a6.34 6.34 0 0 1 2.127.394 3.55 3.55 0 0 1 1.317.857 3.55 3.55 0 0 1 .856 1.318 6.34 6.34 0 0 1 .394 2.127l.067 4.628-.067 4.628a6.34 6.34 0 0 1-.394 2.127c-.385 1-1.175 1.79-2.174 2.174a6.34 6.34 0 0 1-2.127.394L20 29.392c-3.058 0-3.42-.012-4.628-.067-.726-.01-1.444-.144-2.124-.397a3.55 3.55 0 0 1-1.317-.857 3.55 3.55 0 0 1-.857-1.317 6.34 6.34 0 0 1-.394-2.127L10.612 20l.067-4.628a6.34 6.34 0 0 1 .393-2.124 3.55 3.55 0 0 1 .857-1.317 3.55 3.55 0 0 1 1.318-.858 6.34 6.34 0 0 1 2.125-.395L20 10.6m0-2.064l-4.722.07c-.95.02-1.9.2-2.78.532-.764.288-1.457.74-2.03 1.322-.583.572-1.034 1.265-1.322 2.03-.333.9-.513 1.83-.532 2.78L8.547 20l.07 4.722c.02.95.198 1.9.53 2.78.288.764.738 1.457 1.32 2.03.573.58 1.266 1.03 2.03 1.316.9.333 1.83.513 2.78.532l4.722.07 4.722-.07c.95-.02 1.9-.2 2.78-.532 1.54-.595 2.755-1.81 3.35-3.35.333-.9.513-1.83.532-2.78l.07-4.722-.07-4.722c-.02-.95-.2-1.9-.532-2.78-.288-.764-.738-1.457-1.32-2.03-.573-.58-1.265-1.03-2.03-1.317-.9-.333-1.83-.513-2.78-.532L20 8.547zm0 5.572c-3.248 0-5.88 2.633-5.88 5.88s2.633 5.88 5.88 5.88 5.88-2.633 5.88-5.88-2.633-5.88-5.88-5.88zm0 9.7A3.82 3.82 0 0 1 16.182 20 3.82 3.82 0 0 1 20 16.182a3.82 3.82 0 0 1 2.7 6.518 3.82 3.82 0 0 1-2.7 1.118zm7.488-9.93c0 .556-.335 1.057-.848 1.27s-1.104.095-1.497-.298-.51-.984-.298-1.497.714-.848 1.27-.848c.758 0 1.373.615 1.374 1.373z" fill="#222327"></path></svg>