<svg xmlns="http://www.w3.org/2000/svg" width="30" height="30" fill="#fff"><path class="svg-c1" d="M23.042 6.72a2.5 2.5 0 0 1-2.49 2.49H6.001a3.22 3.22 0 0 1 3.02-2.08h.08a2.28 2.28 0 0 1 .27.02v-.02c0-.06 0-.12.01-.18a3.2 3.2 0 0 1 3.21-3.04c.26 0 .51.03.74.09a2.69 2.69 0 0 1 1.97 2.61.5.5 0 1 0 1 0 3.7 3.7 0 0 0-2.72-3.59c.5-1.19 1.68-2.02 3.05-2.02a3.32 3.32 0 0 1 3.33 3.29c.18-.05.39-.07.59-.07a2.5 2.5 0 0 1 2.49 2.5zM9.541 11l1.28 17.85h-1.56c-.94 0-1.72-.76-1.83-1.77l-1.42-13.86c-.12-1.18.73-2.22 1.82-2.22h1.71zm8.721 0l-1.28 17.85h-5L10.702 11h7.56zm4.59 2.22l-1.42 13.86c-.11 1.01-.89 1.77-1.83 1.77h-1.46L19.422 11h1.61c1.09 0 1.94 1.04 1.82 2.22z"></path></svg>