<svg xmlns="http://www.w3.org/2000/svg" width="40" height="40" fill="#ffffff" viewBox="0 0 40 40" class="t-loginIcon-0-1-38">
<path style="fill:white" d="M20.632 4.33c-4.8-.01-9.318 2.178-12.287 5.936-.328.414-.258 1.016.157 1.343s1.016.258 1.343-.156a13.76 13.76 0 1 1 0 17.093c-.328-.414-.93-.484-1.343-.156a.96.96 0 0 0-.157 1.343 15.68 15.68 0 1 0 12.287-25.4zm1.596 14.72H4.636a.95.95 0 0 0-.82.473c-.17.293-.17.654 0 .947s.482.474.82.473H22.23l-4.1 4.1c-.357.372-.352.96.013 1.326s.954.37 1.326.013l5.7-5.7c.01-.01.016-.025.025-.035a.89.89 0 0 0 .085-.114 1.04 1.04 0 0 0 .072-.119c.006-.014.017-.025.023-.04s.013-.058.02-.087a.85.85 0 0 0 0-.55c-.01-.03-.01-.06-.02-.087s-.016-.025-.023-.038a1 1 0 0 0-.072-.12.95.95 0 0 0-.085-.114c-.01-.01-.015-.025-.025-.035l-5.7-5.7c-.372-.357-.96-.352-1.326.013s-.37.954-.013 1.326z"></path></svg>