<svg xmlns="http://www.w3.org/2000/svg" width="30" height="30" viewBox="0 0 30 30" class="Button-icon-0-1-61"><g transform="matrix(-1 0 0 -1 1649.226 -336.319)" class="svg-c1"><path style="fill:white" class="svg-c1" d="M1634.13-339.32a12.02 12.02 0 0 1-12.102-12.101 12.02 12.02 0 0 1 12.102-12.101 12.02 12.02 0 0 1 8.557 3.544 12.12 12.12 0 0 1 0 17.114 12.02 12.02 0 0 1-8.557 3.544zm0-23.08a10.91 10.91 0 0 0-10.98 10.98 10.91 10.91 0 0 0 10.98 10.98 10.91 10.91 0 0 0 7.764-3.216c4.28-4.29 4.28-11.238 0-15.53a10.91 10.91 0 0 0-7.764-3.215z"></path><rect style="fill:white" width="3.14" height="10.632" rx="1.57" x="1632.561" y="-359.153"></rect><rect style="fill:white" width="3.14" height="3.14" rx="1.57" x="1632.561" y="-346.124"></rect></g></svg>