<svg xmlns="http://www.w3.org/2000/svg" width="30" height="30" fill="none"><path class="svg-c1" d="M23.533 5c-1.466 0-2.668 1.092-2.813 2.493l-.017.283v15.289c0 .1.009.192.017.283V26H5V8.335C5 6.492 6.526 5 8.41 5h15.123zM28 9.127v3.218h-5.669V9.127a2.99 2.99 0 0 1 .017-.283c.145-1.401 1.347-2.493 2.813-2.493a2.85 2.85 0 0 1 2.003.809c.52.509.835 1.2.835 1.967z" fill="#fff"></path><path d="M8.615 11.511H7.251c-.469 0-.852-.375-.852-.834V9.343c0-.459.384-.834.852-.834h1.364c.469 0 .852.375.852.834v1.334c0 .458-.384.834-.852.834zm0 5.252H7.251c-.469 0-.852-.375-.852-.834v-1.334c0-.458.384-.834.852-.834h1.364c.469 0 .852.375.852.834v1.334c0 .458-.384.834-.852.834zm0 5.252H7.251c-.469 0-.852-.375-.852-.834v-1.334c0-.459.384-.834.852-.834h1.364c.469 0 .852.375.852.834v1.334c0 .459-.384.834-.852.834zm9.564-10.504h-1.364c-.469 0-.852-.375-.852-.834V9.343c0-.459.384-.834.852-.834h1.364c.469 0 .852.375.852.834v1.334c0 .458-.384.834-.852.834zm0 5.252h-1.364c-.469 0-.852-.375-.852-.834v-1.334c0-.458.384-.834.852-.834h1.364c.469 0 .852.375.852.834v1.334c0 .458-.384.834-.852.834zm0 5.252h-1.364c-.469 0-.852-.375-.852-.834v-1.334c0-.459.384-.834.852-.834h1.364c.469 0 .852.375.852.834v1.334c0 .459-.384.834-.852.834z" fill="#121212"></path></svg>