<svg xmlns="http://www.w3.org/2000/svg" width="40" height="40" viewBox="0 0 40 40" class="t-socialIcon-0-1-57">
    <path d="M25.133 30.8l-5.82-4.265-3.263 3.062c-.16.14-.365.22-.578.224-.396.034-.766-.203-.9-.578l-2.307-6.977-5.73-1.78a.81.81 0 0 1-.6-.75c-.014-.38.233-.723.6-.83Q30.025 10.1 30.18 10.1a.87.87 0 0 1 .564.252.77.77 0 0 1 .266.653l-4 19.025a1.1 1.1 0 0 1-1.179.979 1.2 1.2 0 0 1-.707-.229zM15.75 23.8q10.74-9.7 10.753-9.75a.46.46 0 0 0 .014-.089c0-.15-.107-.224-.326-.224q-.077 0-12.547 7.98l1.752 5.75z" fill="#222327"></path></svg>