<svg xmlns="http://www.w3.org/2000/svg" width="40" height="40" viewBox="0 0 40 40" class="t-socialIcon-0-1-57">
    <path d="M15.84 30.375c3.87.027 7.586-1.498 10.322-4.234s4.26-6.453 4.234-10.322q0-.332-.014-.66a10.4 10.4 0 0 0 2.552-2.649 10.2 10.2 0 0 1-2.938.805c1.068-.64 1.868-1.645 2.25-2.83a10.26 10.26 0 0 1-3.249 1.242 5.12 5.12 0 0 0-8.718 4.665c-4.114-.206-7.947-2.15-10.545-5.345a5.12 5.12 0 0 0 1.584 6.83c-.812-.025-1.607-.244-2.317-.64v.065a5.12 5.12 0 0 0 4.1 5.015 5.11 5.11 0 0 1-2.31.088 5.12 5.12 0 0 0 4.779 3.553c-1.812 1.422-4.05 2.194-6.354 2.2a10.39 10.39 0 0 1-1.22-.071 14.48 14.48 0 0 0 7.842 2.3" fill="#222327"></path></svg>