<svg xmlns="http://www.w3.org/2000/svg" width="40" height="40" viewBox="0 0 40 40">
    <path style="fill:white" class="svg-c1" d="M31.422 8.577c.325.325.325.853 0 1.18L9.756 31.422c-.325.325-.853.325-1.18 0a.83.83 0 0 1 0-1.178L30.244 8.577c.325-.325.853-.325 1.178 0zm-6.256 3.41c-.58-1.154-2.18-1.6-3.272-.62l-4.147 3.686c-.343.305-.786.473-1.245.473H13.75a2.06 2.06 0 0 0-2.062 2.062v6.87a2.06 2.06 0 0 0 .175.832l13.304-13.304zM16.324 26.52h.773a1.88 1.88 0 0 1 1.245.473l3.553 3.158a2.1 2.1 0 0 0 3.49-1.568V17.46l-9.062 9.062z"></path></svg>