<svg xmlns="http://www.w3.org/2000/svg" width="40" height="40" viewBox="0 0 40 40">
    <path style="fill:white" class="svg-c1" d="M17.728 10.534L13.58 14.22c-.343.305-.786.473-1.245.473H9.583a2.06 2.06 0 0 0-2.061 2.061v6.87a2.06 2.06 0 0 0 2.061 2.061h3.348a1.88 1.88 0 0 1 1.245.473l3.553 3.158a2.1 2.1 0 0 0 3.49-1.568v-15.65c0-1.8-2.14-2.77-3.5-1.568zm6.798 18.35c4.524-.543 7.938-4.394 7.938-8.958a9.03 9.03 0 0 0-7.94-8.96.53.53 0 0 0-.067-.004c-.287 0-.537.215-.572.506a.57.57 0 0 0 .502.639 7.88 7.88 0 0 1 0 15.636c-.315.038-.54.324-.502.64s.32.538.642.502zm3.568-8.958a4.65 4.65 0 0 0-3.497-4.505.59.59 0 0 0-.143-.018c-.256 0-.5.172-.556.43-.08.307.107.62.413.7a3.5 3.5 0 0 1 0 6.784c-.307.08-.492.393-.413.7a.58.58 0 0 0 .7.413 4.65 4.65 0 0 0 3.496-4.505z"></path></svg>